<?xml version="1.0" encoding="utf-8"?>
<!-- Generator: Adobe Illustrator 16.0.4, SVG Export Plug-In . SVG Version: 6.00 Build 0)  -->
<!DOCTYPE svg PUBLIC "-//W3C//DTD SVG 1.1//EN" "http://www.w3.org/Graphics/SVG/1.1/DTD/svg11.dtd">
<svg version="1.1" id="Layer_1" xmlns="http://www.w3.org/2000/svg" xmlns:xlink="http://www.w3.org/1999/xlink" x="0px" y="0px"
	 width="100px" height="100px" viewBox="0 0 100 100" enable-background="new 0 0 100 100" xml:space="preserve">
<g>
	<path fill="#ffffff" d="M76.478,27.417l20.559,20.558c0.58,0.58,0.87,1.289,0.87,2.125c0,0.77-0.29,1.444-0.87,2.024L76.478,72.684
		c-0.452,0.445-0.968,0.732-1.548,0.861c-0.574,0.066-1.121,0.003-1.64-0.192c-0.58-0.257-1.029-0.611-1.348-1.063
		c-0.323-0.513-0.485-1.059-0.485-1.639V58.877H54.766c-0.837,0-1.546-0.289-2.126-0.87c-0.513-0.573-0.77-1.279-0.77-2.116V44.21
		c0-0.836,0.257-1.545,0.77-2.125c0.58-0.58,1.289-0.87,2.126-0.87h16.691V29.442c0-0.58,0.162-1.127,0.485-1.64
		c0.318-0.452,0.768-0.806,1.348-1.063c0.519-0.189,1.065-0.253,1.64-0.192C75.51,26.675,76.025,26.965,76.478,27.417z
		 M38.449,32.63v17.562l8.3,6.083c0.324,0.257,0.517,0.577,0.577,0.962c0.067,0.385-0.027,0.77-0.284,1.154l-2.317,3.188
		c-0.257,0.324-0.577,0.516-0.962,0.577c-0.452,0.067-0.84-0.027-1.164-0.284l-10.517-7.631c-0.195-0.129-0.357-0.32-0.485-0.578
		c-0.129-0.189-0.192-0.412-0.192-0.668V32.63c0-0.452,0.161-0.807,0.485-1.063c0.257-0.324,0.61-0.485,1.062-0.485h3.958
		c0.445,0,0.797,0.162,1.054,0.485C38.287,31.824,38.449,32.178,38.449,32.63z M44.624,27.033c-3.085-1.289-6.3-1.933-9.647-1.933
		c-3.407,0-6.657,0.645-9.747,1.933c-2.963,1.282-5.601,3.084-7.916,5.405c-2.314,2.248-4.082,4.886-5.304,7.916
		c-1.356,3.084-2.034,6.3-2.034,9.647c0,3.408,0.678,6.657,2.034,9.748c1.222,2.962,2.989,5.6,5.304,7.915
		c2.315,2.247,4.953,4.016,7.916,5.304c3.09,1.289,6.34,1.934,9.747,1.934c3.348,0,6.562-0.645,9.647-1.934
		c2.962-1.288,5.601-3.057,7.915-5.304c0.965-0.965,1.835-1.964,2.611-2.996h6.943c-1.416,2.639-3.185,5.021-5.304,7.146
		c-2.834,2.896-6.117,5.115-9.849,6.661c-3.793,1.606-7.781,2.409-11.965,2.409c-4.245,0-8.267-0.803-12.065-2.409
		c-3.731-1.546-7.015-3.766-9.849-6.661c-2.827-2.834-5.014-6.082-6.56-9.747C4.897,58.205,4.094,54.184,4.094,50
		s0.804-8.172,2.41-11.965c1.545-3.731,3.731-7.015,6.56-9.848c2.9-2.828,6.184-5.048,9.848-6.66
		c3.799-1.606,7.821-2.41,12.065-2.41c4.184,0,8.172,0.803,11.965,2.41c3.731,1.612,7.015,3.833,9.849,6.66
		c2.119,2.125,3.921,4.538,5.405,7.237H55.15c-0.776-1.093-1.646-2.089-2.611-2.987C50.225,30.117,47.586,28.315,44.624,27.033z"/>
</g>
</svg>
