<?xml version="1.0" encoding="utf-8"?>
<!-- Generator: Adobe Illustrator 16.0.4, SVG Export Plug-In . SVG Version: 6.00 Build 0)  -->
<!DOCTYPE svg PUBLIC "-//W3C//DTD SVG 1.1//EN" "http://www.w3.org/Graphics/SVG/1.1/DTD/svg11.dtd">
<svg version="1.1" id="Layer_1" xmlns="http://www.w3.org/2000/svg" xmlns:xlink="http://www.w3.org/1999/xlink" x="0px" y="0px"
	 width="100px" height="100px" viewBox="0 0 100 100" enable-background="new 0 0 100 100" xml:space="preserve">
<g>
	<path fill="#ffffff" d="M95.49,38.02c1.611,3.801,2.416,7.794,2.416,11.98s-0.805,8.212-2.416,12.076
		c-0.386,0.9-0.805,1.771-1.256,2.607c-1.417,2.641-3.188,5.024-5.313,7.149c-2.834,2.898-6.118,5.12-9.854,6.667
		c-3.8,1.609-7.826,2.415-12.077,2.415c-4.187,0-8.179-0.806-11.979-2.415c-3.736-1.547-7.02-3.769-9.854-6.667
		c-1.224-1.224-2.351-2.544-3.381-3.96l4.251-4.252c0.322,0.322,0.612,0.677,0.869,1.062h-0.096
		c0.773,1.031,1.643,2.029,2.609,2.996c2.318,2.254,4.958,4.024,7.921,5.313c3.092,1.287,6.312,1.932,9.662,1.932
		c3.414,0,6.666-0.645,9.758-1.932c2.963-1.289,5.604-3.06,7.922-5.313c0.967-0.967,1.805-1.965,2.513-2.996
		c1.159-1.545,2.093-3.188,2.802-4.927c1.352-3.091,2.028-6.344,2.028-9.757c0-3.35-0.677-6.57-2.028-9.661
		c-0.709-1.804-1.61-3.446-2.706-4.928c-0.772-1.094-1.642-2.092-2.608-2.994c-2.318-2.319-4.959-4.122-7.922-5.411
		c-3.092-1.287-6.344-1.932-9.758-1.932c-3.35,0-6.57,0.645-9.662,1.932c-2.963,1.289-5.604,3.092-7.921,5.411
		c-0.966,0.901-1.836,1.9-2.609,2.994c-0.258,0.387-0.515,0.772-0.773,1.16l-4.347-4.348c1.094-1.481,2.254-2.834,3.478-4.058
		c2.834-2.834,6.118-5.056,9.854-6.665c3.801-1.611,7.793-2.416,11.98-2.416c4.25,0,8.276,0.805,12.076,2.416
		c3.672,1.609,6.956,3.831,9.854,6.665c2.126,2.126,3.896,4.541,5.313,7.245C94.686,36.249,95.104,37.118,95.49,38.02z
		 M27.185,26.523c0.58,0.129,1.095,0.419,1.545,0.87l20.579,20.577c0.581,0.58,0.87,1.289,0.87,2.126c0,0.772-0.29,1.449-0.87,2.028
		L28.73,72.703c-0.451,0.45-0.966,0.74-1.545,0.869c-0.58,0.063-1.127,0-1.643-0.193c-0.58-0.258-1.03-0.611-1.353-1.062
		c-0.322-0.516-0.483-1.062-0.483-1.643V58.887H6.993c-0.837,0-1.545-0.289-2.125-0.868c-0.516-0.58-0.773-1.289-0.773-2.126V44.203
		c0-0.838,0.258-1.546,0.773-2.126c0.58-0.58,1.289-0.869,2.125-0.869h16.714V29.421c0-0.579,0.161-1.126,0.483-1.642
		c0.323-0.45,0.773-0.806,1.353-1.063C26.058,26.523,26.605,26.459,27.185,26.523z M70.081,31.547
		c0.323,0.258,0.483,0.612,0.483,1.063v17.582l8.309,6.087c0.322,0.258,0.516,0.58,0.58,0.967c0.064,0.386-0.032,0.772-0.289,1.158
		l-2.32,3.188c-0.257,0.322-0.578,0.516-0.965,0.579c-0.451,0.064-0.838-0.031-1.16-0.289l-10.53-7.633
		c-0.194-0.128-0.354-0.321-0.483-0.579c-0.129-0.193-0.193-0.419-0.193-0.677V32.61c0-0.451,0.162-0.806,0.482-1.063
		c0.258-0.321,0.613-0.482,1.062-0.482h3.963C69.47,31.064,69.824,31.226,70.081,31.547z"/>
</g>
</svg>
