<?xml version="1.0" encoding="utf-8"?>
<!-- Generator: Adobe Illustrator 16.0.0, SVG Export Plug-In . SVG Version: 6.00 Build 0)  -->
<!DOCTYPE svg PUBLIC "-//W3C//DTD SVG 1.1//EN" "http://www.w3.org/Graphics/SVG/1.1/DTD/svg11.dtd">
<svg version="1.1" id="Layer_1" xmlns="http://www.w3.org/2000/svg" xmlns:xlink="http://www.w3.org/1999/xlink" x="0px" y="0px"
	 width="170px" height="64px" viewBox="0 0 170 64" enable-background="new 0 0 170 64" xml:space="preserve">
<g>
	<path fill-rule="evenodd" clip-rule="evenodd" fill="#FFFFFF" d="M22.2,42.8h-1.1V40.9h1.1V42.8z M32,30.4h1.9v1.1H32V30.4z
		 M11.5,31.5H9.6v-1.1h1.9V31.5z M21.1,22.65h1.1v6.3l2.4-4l1,0.55l-3.45,5.7c-0.066,0.1-0.167,0.2-0.3,0.3
		c-0.133,0.033-0.25,0.033-0.35,0s-0.2-0.117-0.3-0.25c-0.067-0.067-0.1-0.167-0.1-0.3V22.65z M22.2,19.15v1.8h-1.1v-1.8H22.2z
		 M80.65,29.1H80.6c-0.967-0.934-2.133-1.4-3.5-1.4c-1.333,0-2.483,0.466-3.45,1.4c-0.433,0.433-0.783,0.9-1.05,1.4h9.05
		C81.383,30,81.05,29.533,80.65,29.1z M60.65,39.2V25.75h1.95v2.1c0.032-0.032,0.065-0.049,0.1-0.05h-0.05
		c1.1-1.066,2.4-1.716,3.9-1.95h-0.1c0.367-0.067,0.733-0.1,1.1-0.1c0.967,0,1.85,0.183,2.65,0.55l-0.75,1.75
		c-0.567-0.233-1.2-0.35-1.9-0.35c-0.267,0-0.5,0.017-0.7,0.05H66.8c-1.066,0.167-1.983,0.617-2.75,1.35
		c-0.933,0.933-1.417,2.017-1.45,3.25V39.2H60.65z M117.05,48.65v1.85h-88.1c-0.9,0.066-1.667,0.4-2.3,1c-0.667,0.634-1,1.4-1,2.3
		V53.9c0.033,0.833,0.367,1.583,1,2.25C27.317,56.783,28.1,57.1,29,57.1c0.967,0,1.767-0.316,2.4-0.949l1.4,1.35
		c-1.066,1-2.333,1.5-3.8,1.5c-1.433,0-2.667-0.5-3.7-1.5h-0.05c-1-1.033-1.517-2.2-1.55-3.5v-0.2c0-1.434,0.533-2.649,1.6-3.649
		c1-1,2.217-1.5,3.65-1.5H117.05z M83.9,31.25C83.967,31.617,84,32,84,32.4H72.2c0,0.033,0,0.066,0,0.1
		c0,1.333,0.483,2.483,1.45,3.45c0.967,0.934,2.117,1.399,3.45,1.399c1.4,0,2.583-0.466,3.55-1.399
		c0.233-0.233,0.417-0.467,0.55-0.7l1.9,0.7c-0.333,0.467-0.7,0.916-1.1,1.35c-1.333,1.3-2.967,1.95-4.9,1.95
		c-1.867,0-3.467-0.65-4.8-1.95c-1.4-1.333-2.1-2.934-2.1-4.8c0-0.434,0.033-0.833,0.1-1.2v-0.05c0.1-0.433,0.25-0.867,0.45-1.3
		c0.333-0.8,0.85-1.517,1.55-2.15c1.333-1.333,2.934-2,4.8-2c1.933,0,3.566,0.667,4.9,2C83,28.8,83.633,29.95,83.9,31.25z
		 M96.25,29.1c-0.967-0.934-2.134-1.4-3.5-1.4c-1.333,0-2.483,0.466-3.45,1.4c-0.434,0.433-0.783,0.9-1.05,1.4h8.95
		C97,30,96.684,29.533,96.25,29.1z M100.4,27.75v-1.9h13.149L104.4,37.3h9.1v1.9h-13.15l9.2-11.45H100.4z M92.75,25.8
		c1.934,0,3.566,0.667,4.9,2c1,1,1.633,2.15,1.899,3.45c0.066,0.367,0.101,0.75,0.101,1.15h-11.9c0,0.033,0,0.066,0,0.1
		c0,1.333,0.517,2.483,1.55,3.45c0.967,0.934,2.117,1.399,3.45,1.399c1.4,0,2.566-0.466,3.5-1.399c0.233-0.233,0.434-0.467,0.6-0.7
		l1.801,0.7c-0.267,0.467-0.601,0.916-1,1.35c-1.334,1.3-2.967,1.95-4.9,1.95c-1.866,0-3.483-0.65-4.85-1.95
		c-1.367-1.333-2.051-2.934-2.051-4.8c0-0.434,0.034-0.833,0.101-1.2v-0.05c0.066-0.433,0.2-0.867,0.399-1.3
		c0.367-0.8,0.884-1.517,1.551-2.15C89.267,26.467,90.884,25.8,92.75,25.8z M140,40.65v1.899H49.5c-2.333-0.033-4.3-0.85-5.9-2.45
		h-0.05C42.65,39.2,42,38.217,41.6,37.15v0.1c-0.033-0.1-0.067-0.2-0.1-0.3c-0.333-0.9-0.5-1.834-0.5-2.8V5h2v23.85
		c0.2-0.233,0.4-0.45,0.6-0.65c1.667-1.667,3.683-2.5,6.05-2.5s4.4,0.833,6.1,2.5c1.1,1.1,1.85,2.333,2.25,3.7v0.05
		c0.033,0.267,0.083,0.55,0.15,0.85v-0.1c0.067,0.434,0.1,0.85,0.1,1.25v0.2c0,0.966-0.15,1.899-0.45,2.8
		c0,0.066-0.017,0.133-0.05,0.2v0.05c-0.267,0.566-0.6,1.116-1,1.649L55.2,37.8c0.3-0.399,0.533-0.833,0.7-1.3v-0.1
		c0.3-0.733,0.45-1.483,0.45-2.25v-0.2c0-0.267-0.033-0.55-0.1-0.851v-0.05c-0.067-0.233-0.133-0.45-0.2-0.649
		c-0.267-1.034-0.833-1.984-1.7-2.851c-1.3-1.267-2.867-1.9-4.7-1.9c-1.833,0-3.4,0.633-4.7,1.9c-0.867,0.867-1.434,1.817-1.7,2.851
		c-0.1,0.199-0.15,0.416-0.15,0.649v0.05c-0.067,0.267-0.1,0.517-0.1,0.75v0.301c0,0.767,0.133,1.517,0.4,2.25v0.1
		c0.333,0.833,0.85,1.583,1.55,2.25c1.267,1.233,2.783,1.866,4.55,1.9H140z M125.6,30.5c-0.233-0.5-0.566-0.967-1-1.4
		c-0.966-0.934-2.133-1.4-3.5-1.4c-1.333,0-2.483,0.466-3.449,1.4c-0.434,0.433-0.767,0.9-1,1.4H125.6z M125.2,35.25l1.85,0.7
		c-0.3,0.467-0.649,0.916-1.05,1.35c-1.366,1.3-3,1.95-4.9,1.95c-1.866,0-3.483-0.65-4.85-1.95c-1.366-1.333-2.05-2.934-2.05-4.8
		c0-0.434,0.033-0.833,0.1-1.2v-0.05c0.066-0.433,0.217-0.867,0.45-1.3c0.366-0.8,0.866-1.517,1.5-2.15c1.366-1.333,2.983-2,4.85-2
		c1.9,0,3.534,0.667,4.9,2c1,1,1.634,2.15,1.9,3.45c0.066,0.367,0.1,0.75,0.1,1.15h-11.85c0,0.033,0,0.066,0,0.1
		c0,1.333,0.5,2.483,1.5,3.45c0.966,0.934,2.116,1.399,3.449,1.399c1.367,0,2.534-0.466,3.5-1.399
		C124.866,35.717,125.066,35.483,125.2,35.25z M164.25,44.65v1.899H21.35c-4.3-0.066-7.934-1.583-10.9-4.55
		c-3.133-3.066-4.7-6.75-4.7-11.05v-0.4c0.1-4.133,1.667-7.65,4.7-10.55c3.133-3.067,6.867-4.6,11.2-4.6c4.4,0,8.133,1.533,11.2,4.6
		c2.333,2.233,3.8,4.783,4.4,7.65H37.2c0.2,0.934,0.316,1.9,0.35,2.9v0.4c0,0.466-0.017,0.917-0.05,1.35
		c-0.2,2.8-1.117,5.334-2.75,7.601l-1.6-1.15c1.434-1.934,2.233-4.134,2.4-6.6c0.034-0.4,0.05-0.8,0.05-1.2V30.6
		c-0.033-0.9-0.133-1.733-0.3-2.5v-0.05c-0.533-2.533-1.783-4.783-3.75-6.75h-0.1c-2.733-2.667-6-4-9.8-4c-3.833,0-7.1,1.333-9.8,4
		c-2.667,2.567-4.05,5.65-4.15,9.25v0.4c0,3.8,1.383,7.033,4.15,9.7c2.566,2.6,5.733,3.933,9.5,4H164.25z"/>
</g>
</svg>
