<?xml version="1.0" encoding="utf-8"?>
<!-- Generator: Adobe Illustrator 16.0.0, SVG Export Plug-In . SVG Version: 6.00 Build 0)  -->
<!DOCTYPE svg PUBLIC "-//W3C//DTD SVG 1.1//EN" "http://www.w3.org/Graphics/SVG/1.1/DTD/svg11.dtd">
<svg version="1.1" id="Layer_1" xmlns="http://www.w3.org/2000/svg" xmlns:xlink="http://www.w3.org/1999/xlink" x="0px" y="0px"
	 width="170px" height="64px" viewBox="0 0 170 64" enable-background="new 0 0 170 64" xml:space="preserve">
<g>
	<defs>
		<path id="SVGID_1_" d="M53.123,29.54v-3.072h-4.688v21.033h4.924V37.299c0-3.573,1.968-7.243,6.269-6.505l2.59-4.419
			c-0.789-0.074-1.506-0.109-2.161-0.109C55.977,26.265,54.344,27.639,53.123,29.54 M110.171,26.074v3.939h11.304l-11.54,13.982
			v3.111h18.157v-3.938h-11.895l11.58-13.983v-3.111H110.171z M93.169,31.048c1.135-0.973,2.524-1.459,4.168-1.459
			c1.669,0,3.065,0.493,4.188,1.479c1.122,0.985,1.792,2.271,2.012,3.859H91.095C91.341,33.312,92.032,32.018,93.169,31.048
			 M91.506,26.92c-1.725,0.958-3.073,2.292-4.044,4.003c-0.972,1.711-1.458,3.634-1.458,5.769c0,2.162,0.5,4.1,1.498,5.81
			c0.999,1.712,2.416,3.046,4.25,4.003c1.834,0.959,3.955,1.438,6.364,1.438c1.889,0,3.586-0.301,5.091-0.903
			c1.506-0.602,2.751-1.491,3.737-2.668l-2.751-3.162c-1.561,1.587-3.545,2.382-5.954,2.382c-1.888,0-3.47-0.473-4.742-1.418
			c-1.273-0.943-2.06-2.224-2.36-3.837h17.204c0.053-0.658,0.081-1.165,0.081-1.521c0-2.245-0.472-4.223-1.416-5.932
			c-0.945-1.712-2.258-3.04-3.941-3.983c-1.684-0.945-3.594-1.417-5.728-1.417C95.173,25.483,93.23,25.962,91.506,26.92
			 M136.02,31.048c1.136-0.973,2.524-1.459,4.167-1.459c1.671,0,3.065,0.493,4.188,1.479c1.123,0.985,1.794,2.271,2.012,3.859
			h-12.44C134.191,33.312,134.884,32.018,136.02,31.048 M134.355,26.92c-1.724,0.958-3.071,2.292-4.043,4.003
			c-0.973,1.711-1.458,3.634-1.458,5.769c0,2.162,0.5,4.1,1.498,5.81c0.999,1.712,2.416,3.046,4.25,4.003
			c1.834,0.959,3.955,1.438,6.364,1.438c1.888,0,3.586-0.301,5.091-0.903c1.506-0.602,2.75-1.491,3.736-2.668l-2.751-3.162
			c-1.561,1.587-3.544,2.382-5.953,2.382c-1.89,0-3.47-0.473-4.742-1.418c-1.273-0.943-2.06-2.224-2.361-3.837h17.204
			c0.055-0.658,0.083-1.165,0.083-1.521c0-2.245-0.473-4.223-1.418-5.932c-0.944-1.712-2.258-3.04-3.941-3.983
			c-1.683-0.945-3.593-1.417-5.728-1.417C138.023,25.483,136.08,25.962,134.355,26.92 M68.598,31.038
			c1.136-0.972,2.525-1.457,4.167-1.457c1.669,0,3.066,0.493,4.188,1.478c1.122,0.984,1.793,2.272,2.012,3.859h-12.44
			C66.771,33.303,67.462,32.01,68.598,31.038 M66.935,26.911c-1.724,0.958-3.072,2.293-4.044,4.003
			c-0.972,1.71-1.458,3.634-1.458,5.77c0,2.161,0.5,4.098,1.499,5.81c0.999,1.71,2.415,3.044,4.25,4.003
			c1.834,0.957,3.955,1.438,6.364,1.438c1.889,0,3.585-0.301,5.091-0.904c1.506-0.602,2.75-1.492,3.736-2.669l-2.75-3.161
			c-1.561,1.588-3.545,2.382-5.955,2.382c-1.889,0-3.47-0.474-4.742-1.417c-1.272-0.944-2.06-2.224-2.361-3.839h17.203
			c0.056-0.658,0.083-1.163,0.083-1.52c0-2.244-0.473-4.222-1.416-5.934c-0.945-1.71-2.259-3.038-3.941-3.982
			c-1.686-0.944-3.593-1.416-5.729-1.416C70.603,25.475,68.659,25.953,66.935,26.911 M132.908,14.249
			c-0.329,0.377-0.496,0.864-0.496,1.461v0.198h1.35v-0.223c0-0.25,0.052-0.454,0.15-0.61c0.137-0.206,0.352-0.308,0.643-0.308
			c0.524,0,0.786,0.274,0.786,0.824v0.203c0,0.443-0.115,0.788-0.347,1.032c-0.254,0.273-0.647,0.41-1.178,0.41v1.083
			c0.982,0,1.475,0.431,1.475,1.292v0.501c0,0.539-0.317,0.809-0.949,0.809c-0.226,0-0.412-0.066-0.557-0.2
			c-0.144-0.133-0.227-0.305-0.244-0.514l-0.031-0.295l-1.31,0.093v0.207c0,0.548,0.212,1.019,0.635,1.412
			c0.423,0.392,0.937,0.586,1.543,0.586c0.625,0,1.157-0.191,1.599-0.574c0.461-0.397,0.689-0.906,0.689-1.524v-0.671
			c0-0.312-0.058-0.578-0.174-0.794c-0.225-0.429-0.539-0.748-0.945-0.956c0.194-0.11,0.365-0.247,0.512-0.41
			c0.341-0.377,0.511-0.828,0.511-1.35v-0.368c0-0.541-0.176-0.991-0.526-1.352c-0.389-0.402-0.905-0.603-1.554-0.603
			C133.811,13.609,133.284,13.823,132.908,14.249 M139.384,20.698c-0.115-0.131-0.172-0.299-0.172-0.505v-1.532
			c0-0.174,0.049-0.334,0.146-0.479c0.124-0.171,0.306-0.257,0.543-0.257c0.164,0,0.292,0.036,0.387,0.11
			c0.193,0.164,0.291,0.364,0.291,0.603v1.556c0,0.206-0.058,0.374-0.176,0.505c-0.12,0.147-0.291,0.223-0.513,0.223
			C139.673,20.921,139.503,20.846,139.384,20.698 M139.101,13.771c-0.398,0.159-0.705,0.403-0.921,0.733
			c-0.216,0.33-0.323,0.7-0.323,1.11v4.596c0,0.551,0.189,1.019,0.571,1.402c0.396,0.399,0.897,0.597,1.508,0.597
			c0.568,0,1.047-0.18,1.438-0.541c0.391-0.363,0.602-0.81,0.632-1.342h0.011v-1.44c0-0.599-0.134-1.07-0.401-1.41
			c-0.304-0.386-0.76-0.579-1.364-0.579c-0.382,0-0.729,0.128-1.045,0.384l0.006-1.693c0-0.206,0.061-0.378,0.178-0.519
			c0.118-0.139,0.286-0.208,0.504-0.208c0.22,0,0.389,0.069,0.507,0.208c0.118,0.141,0.178,0.313,0.178,0.518v0.207h1.438v-0.179
			c0-0.553-0.192-1.021-0.577-1.405c-0.402-0.402-0.904-0.603-1.504-0.603C139.633,13.609,139.354,13.663,139.101,13.771
			 M144.759,20.706c-0.153-0.143-0.23-0.313-0.23-0.513v-4.604c0-0.199,0.077-0.371,0.23-0.513c0.155-0.143,0.343-0.214,0.56-0.214
			c0.223,0,0.411,0.071,0.566,0.214c0.156,0.143,0.235,0.314,0.235,0.513v4.604c0,0.2-0.079,0.371-0.235,0.513
			c-0.155,0.144-0.344,0.215-0.566,0.215C145.102,20.921,144.914,20.85,144.759,20.706 M143.816,14.193
			c-0.431,0.39-0.645,0.863-0.645,1.421v4.596c0,0.551,0.212,1.022,0.639,1.413c0.425,0.392,0.941,0.586,1.553,0.586
			c0.599,0,1.112-0.193,1.54-0.582c0.431-0.387,0.645-0.86,0.645-1.418v-4.596c0-0.551-0.212-1.024-0.635-1.416
			c-0.425-0.393-0.94-0.589-1.55-0.589C144.759,13.609,144.243,13.804,143.816,14.193"/>
	</defs>
	<clipPath id="SVGID_2_">
		<use xlink:href="#SVGID_1_"  overflow="visible"/>
	</clipPath>
	
		<linearGradient id="SVGID_3_" gradientUnits="userSpaceOnUse" x1="-220.2583" y1="428.5684" x2="-219.8018" y2="428.5684" gradientTransform="matrix(0.8679 -107.3122 -107.3122 -0.8679 46281.3398 -23203.1152)">
		<stop  offset="0" style="stop-color:#9FC1E1"/>
		<stop  offset="0.1435" style="stop-color:#9FC1E1"/>
		<stop  offset="0.33" style="stop-color:#9FC1E1"/>
		<stop  offset="0.6004" style="stop-color:#FFFFFF"/>
		<stop  offset="1" style="stop-color:#FFFFFF"/>
	</linearGradient>
	<polygon clip-path="url(#SVGID_2_)" fill="url(#SVGID_3_)" points="48.157,47.94 48.442,12.777 151.551,13.611 151.267,48.773 	"/>
</g>
<g>
	<path fill-rule="evenodd" clip-rule="evenodd" fill="#8AB4DA" d="M28.488,37.929c-0.952-1.889-1.104-4.039,0.408-5.71
		c1.185-1.309,3.076-1.9,4.805-1.626c2.104,0.334,3.534,1.818,4.144,3.833c0.298,1.747,0.03,3.852-1.089,5.281
		c-0.318,0.409-0.694,0.766-1.116,1.068c-2.026,1.456-4.857,1.507-7.173,0.817c-1.716-0.51-3.381-1.482-4.499-2.892
		c-2.225-2.263-3.231-6.008-3.947-9.016c-0.941-3.957-1.633-7.945-2.991-11.795C14.908,11.878,11.548,7.466,5.75,5
		c2.046,1.334,3.702,3.056,4.988,5.208c2.571,4.301,3.299,9.71,3.864,14.61c0.739,6.412,1.199,14.778,6.208,19.478
		c2.945,2.646,6.588,4.242,10.579,4.211c3.468-0.028,6.846-1.305,9.462-3.58c4.004-3.48,5.131-9.51,2.683-14.214
		c-2.441-4.688-7.319-6.191-12.314-5.419c-2.711,0.478-5.061,2.01-6.13,4.61c-0.822,1.996-0.743,4.458,0.591,6.22
		C26.391,37.059,27.362,37.663,28.488,37.929"/>
	<path fill-rule="evenodd" clip-rule="evenodd" fill="#FFFFFF" d="M11.925,26.753c-0.389,47.441,63.314,22.085,76.081,24.355
		C74.966,52.615,5.75,79.196,11.925,26.753"/>
</g>
</svg>
